<?xml version="1.0" standalone="no"?>
<!DOCTYPE svg PUBLIC "-//W3C//DTD SVG 20010904//EN"
 "http://www.w3.org/TR/2001/REC-SVG-20010904/DTD/svg10.dtd">
<svg version="1.0" xmlns="http://www.w3.org/2000/svg"
 width="360.000000pt" height="360.000000pt" viewBox="0 0 360.000000 360.000000"
 preserveAspectRatio="xMidYMid meet">

<g transform="translate(0.000000,360.000000) scale(0.100000,-0.100000)"
fill="#000000" stroke="none">
<path d="M249 3245 c-90 -53 -183 -106 -206 -117 l-43 -22 0 -408 0 -407 48
-27 c182 -105 255 -150 255 -159 0 -5 -67 -48 -149 -95 l-149 -85 -3 -450 -2
-451 173 -117 173 -117 495 0 494 0 195 115 c107 63 198 115 203 115 4 0 6
203 5 452 l-3 451 -149 86 c-83 47 -151 91 -153 96 -1 6 28 27 65 49 37 21
106 61 155 89 l87 51 0 402 0 402 -37 22 c-21 12 -115 67 -210 121 l-171 99
-454 0 -454 0 -165 -95z m989 -628 l2 -297 -372 2 -373 3 -3 284 c-2 202 1
288 9 297 10 12 75 14 373 12 l361 -3 3 -298z m-20 -723 l22 -6 -2 -337 -3
-336 -370 0 -370 0 -3 337 -2 337 22 4 c36 7 680 7 706 1z"/>
<path d="M1845 458 c-32 -101 -60 -189 -62 -195 -4 -9 5 -13 25 -13 24 0 31 5
36 28 3 15 30 102 60 195 l54 167 -27 0 c-27 0 -29 -5 -86 -182z"/>
<path d="M2370 610 c0 -28 3 -30 35 -30 32 0 35 2 35 30 0 28 -3 30 -35 30
-32 0 -35 -2 -35 -30z"/>
<path d="M2058 612 c-25 -15 -28 -22 -28 -74 0 -47 4 -59 20 -68 11 -6 20 -15
20 -20 0 -5 -9 -12 -20 -15 -17 -6 -20 -15 -20 -74 0 -63 2 -68 29 -84 37 -22
141 -23 181 -2 29 15 30 18 30 85 0 60 -3 69 -20 75 -11 3 -20 9 -20 13 0 4 9
13 20 20 16 10 20 23 20 72 0 56 -2 60 -30 75 -40 21 -147 19 -182 -3z m152
-87 l0 -45 -60 0 -60 0 0 45 0 45 60 0 60 0 0 -45z m0 -155 l0 -50 -60 0 -60
0 0 50 0 50 60 0 60 0 0 -50z"/>
<path d="M2380 390 l0 -130 25 0 25 0 0 130 0 130 -25 0 -25 0 0 -130z"/>
<path d="M2552 504 c-20 -14 -22 -23 -22 -114 l0 -99 30 -16 c39 -20 121 -19
159 3 l31 17 0 96 c0 92 -1 98 -25 113 -33 21 -142 22 -173 0z m138 -109 l0
-75 -55 0 -55 0 0 68 c0 38 3 72 7 75 3 4 28 7 55 7 l48 0 0 -75z"/>
<path d="M3073 503 c-21 -14 -23 -23 -23 -112 0 -96 0 -97 29 -114 19 -11 50
-17 90 -17 l61 0 0 30 0 30 -65 0 -66 0 3 73 3 72 63 3 c58 3 62 4 62 27 0 24
-2 25 -67 24 -45 0 -76 -5 -90 -16z"/>
<path d="M3320 390 l0 -130 25 0 c24 0 24 1 27 103 l3 102 53 3 52 3 0 -105 0
-106 30 0 30 0 0 114 c0 110 -1 114 -25 130 -27 18 -87 21 -115 6 -13 -7 -21
-7 -25 0 -3 5 -17 10 -31 10 l-24 0 0 -130z"/>
<path d="M2850 310 l0 -50 45 0 45 0 0 50 0 50 -45 0 -45 0 0 -50z"/>
</g>
</svg>
